<svg width="773" height="511" viewBox="0 0 773 511" fill="none" xmlns="http://www.w3.org/2000/svg">
<g filter="url(#filter0_d_2_389)">
<path d="M531.223 393.304C506.043 471.437 431.654 519.288 350.147 496.74C329.657 491.474 317.313 470.573 322.621 450.124C327.888 429.634 348.789 417.291 369.238 422.598C385.695 429.14 403.017 434.325 420.586 430.128C449.346 424.944 472.798 400.051 485.759 374.459C500.118 347.798 539.987 364.503 531.223 393.345V393.304Z" fill="#B5FF3F"/>
<path d="M270.904 329.447C249.879 338.129 212.972 356.15 207.829 379.314C207.747 383.346 209.105 384.252 211.532 387.296C225.686 403.59 223.958 428.276 207.665 442.43C188.203 459.998 155.535 452.181 145.907 427.906L142.615 419.883C129.573 389.642 136.485 354.587 158.538 330.599C185.035 302.292 221.654 289.291 258.108 281.72C288.349 276.659 299.417 318.832 270.862 329.406L270.904 329.447Z" fill="#B5FF3F"/>
<path d="M659.963 351.172C634.207 422.187 500.159 430.086 432.929 423.833C411.04 421.816 385.654 417.291 359.98 410.296C287.607 390.711 212.93 351.748 207.499 294.516C203.59 253.084 236.177 204.286 285.673 168.326C333.689 133.436 397.586 110.601 459.344 118.336C585.081 134.053 687.777 274.396 659.963 351.172Z" fill="#B5FF3F"/>
<path d="M420.257 386.885C399.644 398.529 343.934 339.116 295.877 254.112C288.43 240.987 281.642 228.027 275.511 215.436C259.917 183.508 248.726 153.967 242.966 130.556C236.259 103.442 236.794 84.4329 246.134 79.1253C266.788 67.4815 322.457 126.894 370.555 211.898C418.611 296.861 440.87 375.2 420.257 386.885V386.885Z" fill="#B5FF3F"/>
<path d="M499.308 207.826C512.512 102.418 492.892 13.1698 455.486 8.48413C418.081 3.79847 377.053 85.4501 363.849 190.858C350.645 296.266 370.265 385.515 407.671 390.201C445.076 394.886 486.104 313.235 499.308 207.826Z" fill="#B5FF3F"/>
<path d="M623.643 288.98C706.13 222.04 753.743 144.044 729.988 114.772C706.233 85.5 620.106 116.036 537.619 182.976C455.131 249.917 407.519 327.912 431.274 357.184C455.029 386.456 541.155 355.92 623.643 288.98Z" fill="#B5FF3F"/>
<path opacity="0.59" d="M384.626 405.524C335.5 465.101 236.301 455.144 190.919 450.289C162.899 447.285 59.0097 436.217 21.7329 366.683C15.0675 354.216 4.61698 337.347 9.88345 317.804C16.4254 293.611 43.5394 275.96 153.395 242.057C257.778 209.841 310.443 194 335.993 204.616C402.894 232.512 437.414 341.421 384.626 405.482V405.524Z" fill="url(#paint0_linear_2_389)"/>
<path d="M312.131 261.23C310.444 267.237 313.982 273.779 319.208 276.824C323.981 279.622 330.399 279.457 334.966 276.289C339.533 273.121 343.154 267.731 342.66 261.888C342.084 255.017 337.887 249.175 331.098 247.282C325.544 245.719 319.002 247.118 314.847 251.273C310.691 255.429 309.045 261.642 310.609 267.484C312.172 273.327 316.78 277.647 322.417 279.046C329.946 280.938 337.311 276.33 339.739 269.212C340.932 265.715 339.574 261.518 337.023 259.008C334.143 256.128 330.646 255.717 326.82 256.293C326.408 256.375 325.997 256.457 325.585 256.581L328.506 256.169C328.095 256.211 327.684 256.252 327.272 256.169L330.317 256.581C329.494 256.457 328.63 256.334 327.848 256.046L330.646 257.239C330.399 257.116 330.152 256.992 329.905 256.828L332.292 258.679C331.963 258.391 331.675 258.144 331.387 257.815L333.238 260.202C332.991 259.831 332.785 259.502 332.58 259.132L333.773 261.971C333.567 261.436 333.403 260.901 333.32 260.366L333.732 263.534C333.732 263.082 333.732 262.711 333.732 262.3L333.32 265.468C333.361 265.18 333.444 264.933 333.526 264.645L332.333 267.484C332.497 267.073 332.703 266.744 332.95 266.414L331.098 268.842C331.263 268.636 331.469 268.43 331.716 268.266L329.288 270.117C329.658 269.87 329.988 269.665 330.358 269.5L327.478 270.693C327.889 270.529 328.26 270.447 328.712 270.364L325.503 270.776C325.955 270.776 326.326 270.735 326.778 270.776L323.569 270.364C323.981 270.447 324.392 270.529 324.803 270.652L321.923 269.418C322.335 269.582 322.664 269.788 322.993 270.035L320.566 268.142C320.771 268.307 320.977 268.513 321.142 268.76L319.249 266.291C319.249 266.291 319.537 266.702 319.66 266.949L318.426 264.069C318.591 264.439 318.673 264.769 318.755 265.139L318.303 261.93C318.344 262.547 318.344 263.205 318.303 263.822L318.714 260.613C318.632 261.024 318.549 261.354 318.426 261.724L319.619 258.885C319.414 259.379 319.167 259.79 318.838 260.243L320.689 257.856C320.442 258.144 320.195 258.391 319.866 258.638L322.211 256.828C321.882 257.033 321.594 257.198 321.224 257.363L323.981 256.211C323.734 256.293 323.487 256.375 323.24 256.375L326.285 255.964C326.038 255.964 325.791 256.005 325.503 255.964L328.506 256.375C328.136 256.334 327.807 256.252 327.437 256.128L330.111 257.239C329.782 257.075 329.494 256.91 329.165 256.704L331.387 258.432C331.098 258.186 330.852 257.939 330.605 257.651L332.333 259.872C331.51 258.762 330.852 257.404 329.782 256.499C326.737 254.071 323.405 252.672 319.455 253.783C315.875 254.771 313.036 257.609 312.049 261.189L312.131 261.23Z" fill="#3E3D4D"/>
<path d="M399.562 262.835C393.925 267.402 392.362 275.96 395.983 282.173C399.356 287.974 405.693 291.348 412.358 291.307C419.023 291.266 426.183 287.316 429.556 281.391C433.136 275.096 433.012 267.854 429.392 261.6C421.903 248.558 401.825 248.27 394.419 261.477C389.811 269.665 391.827 280.691 400.138 285.711C406.721 289.702 416.843 288.961 422.027 282.831C425.154 279.128 427.54 273.903 425.689 268.965L425.565 268.677C424.331 265.345 422.438 262.094 419.147 260.325C415.855 258.556 412.152 257.98 408.408 258.926C406.186 259.461 403.265 260.942 401.825 262.67C400.55 264.151 405.24 260.654 403.306 261.518L406.721 260.078C406.433 260.202 406.104 260.284 405.775 260.284L409.56 259.79C409.231 259.79 408.902 259.79 408.614 259.79L412.399 260.284C412.07 260.243 411.782 260.16 411.494 260.037L414.868 261.477C416.349 262.464 417.583 263.658 418.571 265.139L420.011 268.513C419.846 268.142 419.764 267.772 419.723 267.402L420.217 271.146C420.175 270.776 420.217 270.364 420.217 269.994L419.723 273.738C420.052 272.38 419.805 272.915 418.9 275.425C417.213 277.359 416.884 277.852 417.83 276.824C416.678 278.017 415.279 278.84 413.633 279.251C414.004 279.128 414.333 279.046 414.703 279.005L411 279.498C411.576 279.457 412.07 279.498 412.646 279.498L408.943 279.005C410.712 279.334 409.972 279.869 407.75 278.264C408.943 279.169 409.231 279.663 406.804 277.318C408.326 278.799 405.158 274.191 406.063 276.207L405.117 273.903C405.24 274.232 405.322 274.602 405.363 274.972L404.87 271.352C404.911 271.722 404.911 272.092 404.87 272.463L405.363 268.842C405.158 270.364 404.417 270.57 406.104 267.69C405.034 269.5 408.449 265.262 406.845 266.661L408.696 265.262C408.367 265.468 408.079 265.674 407.709 265.797C407.668 265.345 411.535 264.604 408.778 265.057L412.317 264.563C411.741 264.604 411.247 264.604 410.671 264.563L414.209 265.057C412.934 264.769 413.469 265.057 415.814 265.879C414.662 265.18 415.115 265.55 417.213 267.031C418.653 269.089 419.065 269.582 418.365 268.472C417.707 267.443 416.966 266.497 416.143 265.633C415.362 264.769 414.415 264.028 413.345 263.452C415.32 265.098 415.855 265.468 414.991 264.645C416.349 266.497 416.719 266.949 416.061 266.003C415.567 265.098 415.773 265.55 416.637 267.402C415.361 263.946 413.14 261.23 409.478 260.243C405.816 259.255 402.442 260.49 399.48 262.876L399.562 262.835Z" fill="#3E3D4D"/>
<path d="M311.101 226.175C316.985 213.503 331.961 211.734 340.684 222.554C344.428 227.204 350.929 220.621 347.226 216.013C334.965 200.83 311.307 203.793 303.078 221.485C300.609 226.875 308.55 231.565 311.06 226.175H311.101Z" fill="#3E3D4D"/>
<path d="M411.536 226.258C426.883 213.503 449.018 223.378 450.211 243.127C450.582 249.052 459.839 249.093 459.469 243.127C457.782 215.025 426.512 201.818 404.994 219.716C400.427 223.542 407.01 230.043 411.536 226.258V226.258Z" fill="#3E3D4D"/>
<path d="M369.815 300.688C369.815 310.11 362.162 317.762 352.74 317.762C343.318 317.762 335.706 310.11 335.706 300.688C335.706 297.766 336.406 295.051 337.681 292.664C340.561 287.275 346.198 283.613 352.74 283.613C360.393 283.613 366.852 288.632 369.033 295.586C369.568 297.19 369.815 298.918 369.815 300.688V300.688Z" fill="#3E3D4D" stroke="#3E3D4D" stroke-width="8.22887" stroke-miterlimit="10" stroke-linecap="round"/>
<path d="M201 462L286.745 437.122L174.133 391.082" fill="#767B77"/>
<path d="M201 462L286.745 437.122L174.133 391.082" stroke="#767B77" stroke-width="16.4577" stroke-linecap="round" stroke-linejoin="round"/>
<path d="M26.3005 287.686L186.64 318.627C194.54 320.149 200.67 326.897 201.905 335.455L218.074 446.956C220.09 460.822 208.817 472.712 196.021 470.244L38.7672 439.879C31.0732 438.398 25.025 431.938 23.585 423.627L4.32943 311.55C1.90191 297.52 13.2577 285.217 26.3005 287.727V287.686Z" fill="#3E3D4D"/>
<path d="M95.9573 390.794C102.479 390.794 107.766 385.507 107.766 378.985C107.766 372.464 102.479 367.177 95.9573 367.177C89.4357 367.177 84.1489 372.464 84.1489 378.985C84.1489 385.507 89.4357 390.794 95.9573 390.794Z" fill="white"/>
<path d="M100.566 358.331C103.179 358.331 105.298 356.212 105.298 353.599C105.298 350.986 103.179 348.868 100.566 348.868C97.9531 348.868 95.8347 350.986 95.8347 353.599C95.8347 356.212 97.9531 358.331 100.566 358.331Z" fill="white"/>
<path d="M114.103 367.506C115.739 367.506 117.065 366.18 117.065 364.544C117.065 362.907 115.739 361.581 114.103 361.581C112.467 361.581 111.14 362.907 111.14 364.544C111.14 366.18 112.467 367.506 114.103 367.506Z" fill="white"/>
<path d="M319.291 267.731C321.79 267.731 323.817 265.705 323.817 263.205C323.817 260.705 321.79 258.679 319.291 258.679C316.791 258.679 314.765 260.705 314.765 263.205C314.765 265.705 316.791 267.731 319.291 267.731Z" fill="white"/>
<path d="M401.496 276.248C403.996 276.248 406.022 274.222 406.022 271.722C406.022 269.222 403.996 267.196 401.496 267.196C398.997 267.196 396.97 269.222 396.97 271.722C396.97 274.222 398.997 276.248 401.496 276.248Z" fill="white"/>
<path d="M369.033 295.586C365.577 298.713 360.393 300.688 354.632 300.688C347.226 300.688 340.808 297.396 337.681 292.664C340.561 287.275 346.198 283.613 352.74 283.613C360.393 283.613 366.852 288.632 369.033 295.586V295.586Z" fill="white"/>
</g>
<defs>
<filter id="filter0_d_2_389" x="0" y="8.29211" width="740.098" height="502.042" filterUnits="userSpaceOnUse" color-interpolation-filters="sRGB">
<feFlood flood-opacity="0" result="BackgroundImageFix"/>
<feColorMatrix in="SourceAlpha" type="matrix" values="0 0 0 0 0 0 0 0 0 0 0 0 0 0 0 0 0 0 127 0" result="hardAlpha"/>
<feOffset dy="4"/>
<feGaussianBlur stdDeviation="2"/>
<feComposite in2="hardAlpha" operator="out"/>
<feColorMatrix type="matrix" values="0 0 0 0 0 0 0 0 0 0 0 0 0 0 0 0 0 0 0.25 0"/>
<feBlend mode="normal" in2="BackgroundImageFix" result="effect1_dropShadow_2_389"/>
<feBlend mode="normal" in="SourceGraphic" in2="effect1_dropShadow_2_389" result="shape"/>
</filter>
<linearGradient id="paint0_linear_2_389" x1="40.6211" y1="247.221" x2="367.88" y2="425.71" gradientUnits="userSpaceOnUse">
<stop stop-color="#B5FF9F"/>
<stop offset="1" stop-color="white"/>
</linearGradient>
</defs>
</svg>
